<mxfile host="Electron" modified="2024-05-02T08:35:35.947Z" agent="Mozilla/5.0 (Windows NT 10.0; Win64; x64) AppleWebKit/537.36 (KHTML, like Gecko) draw.io/23.0.2 Chrome/120.0.6099.109 Electron/28.1.0 Safari/537.36" etag="0j9MLLe-0V2itrr4Rui2" version="23.0.2" type="device">
  <diagram name="Page-1" id="2ca16b54-16f6-2749-3443-fa8db7711227">
    <mxGraphModel dx="1434" dy="844" grid="1" gridSize="10" guides="1" tooltips="1" connect="1" arrows="1" fold="1" page="1" pageScale="1" pageWidth="1100" pageHeight="850" background="#ffffff" math="0" shadow="0">
      <root>
        <mxCell id="0" />
        <mxCell id="1" parent="0" />
        <mxCell id="2ed32ef02a7f4228-1" value="&lt;div style=&quot;box-sizing: border-box ; width: 100% ; padding: 2px&quot;&gt;&lt;br&gt;&lt;/div&gt;" style="verticalAlign=top;align=center;overflow=fill;html=1;rounded=0;shadow=0;comic=0;labelBackgroundColor=none;strokeColor=#000000;strokeWidth=1;fillColor=#ffffff;fontFamily=Verdana;fontSize=12;fontColor=#000000;" parent="1" vertex="1">
          <mxGeometry x="100" y="80" width="200" height="100" as="geometry" />
        </mxCell>
        <mxCell id="SjU_2BTI9DgWFUzOwO9X-2" value="comptes" style="rounded=0;whiteSpace=wrap;html=1;" parent="1" vertex="1">
          <mxGeometry x="100" y="80" width="200" height="20" as="geometry" />
        </mxCell>
        <mxCell id="SjU_2BTI9DgWFUzOwO9X-4" value="nom&lt;br&gt;prénom&lt;br&gt;&lt;u&gt;mail&lt;/u&gt;&lt;br&gt;typeUtilisateur&lt;br&gt;statusDuCompte" style="text;html=1;strokeColor=none;fillColor=none;align=left;verticalAlign=top;whiteSpace=wrap;rounded=0;" parent="1" vertex="1">
          <mxGeometry x="100" y="100" width="90" height="60" as="geometry" />
        </mxCell>
        <mxCell id="SjU_2BTI9DgWFUzOwO9X-6" value="text&lt;br&gt;text&lt;br&gt;&lt;u&gt;text&lt;/u&gt;&lt;br&gt;booléen&lt;br&gt;booléen" style="text;html=1;strokeColor=none;fillColor=none;align=left;verticalAlign=top;whiteSpace=wrap;rounded=0;" parent="1" vertex="1">
          <mxGeometry x="200" y="100" width="100" height="80" as="geometry" />
        </mxCell>
        <mxCell id="X6WWfGfGG16ZRqS3FJJq-2" value="" style="group" vertex="1" connectable="0" parent="1">
          <mxGeometry x="790" y="80" width="200" height="105" as="geometry" />
        </mxCell>
        <mxCell id="Gy9qdy7r6_L6vcuzWhop-16" value="&lt;div style=&quot;box-sizing: border-box ; width: 100% ; padding: 2px&quot;&gt;&lt;br&gt;&lt;/div&gt;" style="verticalAlign=top;align=center;overflow=fill;html=1;rounded=0;shadow=0;comic=0;labelBackgroundColor=none;strokeColor=#000000;strokeWidth=1;fillColor=#ffffff;fontFamily=Verdana;fontSize=12;fontColor=#000000;" parent="X6WWfGfGG16ZRqS3FJJq-2" vertex="1">
          <mxGeometry width="200" height="105" as="geometry" />
        </mxCell>
        <mxCell id="SjU_2BTI9DgWFUzOwO9X-3" value="stages" style="rounded=0;whiteSpace=wrap;html=1;" parent="X6WWfGfGG16ZRqS3FJJq-2" vertex="1">
          <mxGeometry width="200" height="23.333333333333336" as="geometry" />
        </mxCell>
        <mxCell id="SjU_2BTI9DgWFUzOwO9X-8" value="nom&lt;br&gt;description&lt;br&gt;status&lt;br&gt;dateDébut&lt;br&gt;dateFin&lt;br&gt;" style="text;html=1;strokeColor=none;fillColor=none;align=left;verticalAlign=top;whiteSpace=wrap;rounded=0;" parent="X6WWfGfGG16ZRqS3FJJq-2" vertex="1">
          <mxGeometry x="10" y="23.333333333333336" width="90" height="23.333333333333336" as="geometry" />
        </mxCell>
        <mxCell id="SjU_2BTI9DgWFUzOwO9X-10" value="text&lt;br&gt;text&lt;br&gt;booléen&lt;br&gt;Date&lt;br&gt;Date&lt;br&gt;" style="text;html=1;strokeColor=none;fillColor=none;align=left;verticalAlign=top;whiteSpace=wrap;rounded=0;" parent="X6WWfGfGG16ZRqS3FJJq-2" vertex="1">
          <mxGeometry x="100" y="23.333333333333336" width="100" height="23.333333333333336" as="geometry" />
        </mxCell>
        <mxCell id="X6WWfGfGG16ZRqS3FJJq-3" value="&lt;div style=&quot;box-sizing: border-box ; width: 100% ; padding: 2px&quot;&gt;&lt;br&gt;&lt;/div&gt;" style="verticalAlign=top;align=center;overflow=fill;html=1;rounded=1;shadow=0;comic=0;labelBackgroundColor=none;strokeColor=#000000;strokeWidth=1;fillColor=#ffffff;fontFamily=Verdana;fontSize=12;fontColor=#000000;" vertex="1" parent="1">
          <mxGeometry x="450" y="95" width="180" height="70" as="geometry" />
        </mxCell>
        <mxCell id="X6WWfGfGG16ZRqS3FJJq-4" value="nom&lt;br&gt;prenom" style="text;html=1;strokeColor=none;fillColor=none;align=left;verticalAlign=top;whiteSpace=wrap;rounded=0;" vertex="1" parent="1">
          <mxGeometry x="460" y="115" width="90" height="20" as="geometry" />
        </mxCell>
        <mxCell id="X6WWfGfGG16ZRqS3FJJq-5" value="" style="endArrow=none;html=1;entryX=1;entryY=0.25;entryDx=0;entryDy=0;exitX=0;exitY=0.25;exitDx=0;exitDy=0;" edge="1" parent="1" source="X6WWfGfGG16ZRqS3FJJq-3" target="X6WWfGfGG16ZRqS3FJJq-3">
          <mxGeometry width="50" height="50" relative="1" as="geometry">
            <mxPoint x="170" y="245" as="sourcePoint" />
            <mxPoint x="220" y="195" as="targetPoint" />
          </mxGeometry>
        </mxCell>
        <mxCell id="X6WWfGfGG16ZRqS3FJJq-6" value="inscrire" style="text;html=1;strokeColor=none;fillColor=none;align=center;verticalAlign=middle;whiteSpace=wrap;rounded=0;" vertex="1" parent="1">
          <mxGeometry x="474" y="95" width="120" height="20" as="geometry" />
        </mxCell>
        <mxCell id="X6WWfGfGG16ZRqS3FJJq-7" value="text&lt;br&gt;text" style="text;html=1;strokeColor=none;fillColor=none;align=left;verticalAlign=top;whiteSpace=wrap;rounded=0;" vertex="1" parent="1">
          <mxGeometry x="550" y="115" width="90" height="20" as="geometry" />
        </mxCell>
        <mxCell id="X6WWfGfGG16ZRqS3FJJq-8" value="" style="endArrow=none;html=1;rounded=0;" edge="1" parent="1">
          <mxGeometry width="50" height="50" relative="1" as="geometry">
            <mxPoint x="300" y="130" as="sourcePoint" />
            <mxPoint x="450" y="130" as="targetPoint" />
          </mxGeometry>
        </mxCell>
        <mxCell id="X6WWfGfGG16ZRqS3FJJq-9" value="1,n" style="edgeLabel;html=1;align=center;verticalAlign=middle;resizable=0;points=[];fontColor=#FF1100;" vertex="1" connectable="0" parent="X6WWfGfGG16ZRqS3FJJq-8">
          <mxGeometry x="-0.1067" y="1" relative="1" as="geometry">
            <mxPoint y="1" as="offset" />
          </mxGeometry>
        </mxCell>
        <mxCell id="X6WWfGfGG16ZRqS3FJJq-11" value="" style="endArrow=none;html=1;rounded=0;" edge="1" parent="1" source="X6WWfGfGG16ZRqS3FJJq-3" target="Gy9qdy7r6_L6vcuzWhop-16">
          <mxGeometry width="50" height="50" relative="1" as="geometry">
            <mxPoint x="790" y="390" as="sourcePoint" />
            <mxPoint x="840" y="340" as="targetPoint" />
          </mxGeometry>
        </mxCell>
        <mxCell id="X6WWfGfGG16ZRqS3FJJq-12" value="0,n" style="edgeLabel;html=1;align=center;verticalAlign=middle;resizable=0;points=[];" vertex="1" connectable="0" parent="X6WWfGfGG16ZRqS3FJJq-11">
          <mxGeometry x="0.05" y="-1" relative="1" as="geometry">
            <mxPoint as="offset" />
          </mxGeometry>
        </mxCell>
      </root>
    </mxGraphModel>
  </diagram>
</mxfile>
